<svg width="131" height="116" viewBox="0 0 131 116" fill="none" xmlns="http://www.w3.org/2000/svg">
<path d="M3.625 24.875C6 25.4375 8.125 25.875 10 26.1875C11.9375 26.4375 13.5625 26.625 14.875 26.75C16.4375 26.9375 17.8125 27 19 26.9375C20.5 26.875 22.375 26.6562 24.625 26.2812C26.875 25.9062 29.25 25.5312 31.75 25.1562C34.25 24.7812 36.7188 24.4687 39.1562 24.2188C41.5938 23.9688 43.7188 23.9375 45.5312 24.125C47.3438 24.3125 49.25 24.75 51.25 25.4375C53.25 26.0625 55.125 26.9375 56.875 28.0625C58.625 29.125 60.125 30.4375 61.375 32C62.6875 33.5625 63.5 35.375 63.8125 37.4375C64.125 39.4375 63.9375 41.5938 63.25 43.9062C62.5625 46.1562 61.4688 48.375 59.9688 50.5625C58.4688 52.6875 56.5938 54.6562 54.3438 56.4688C52.0938 58.2812 49.5938 59.75 46.8438 60.875C44.6562 61.6875 42.2812 62.3125 39.7188 62.75C37.5312 63.125 34.9688 63.375 32.0312 63.5C29.1562 63.5625 26.0938 63.25 22.8438 62.5625C22.4062 64.375 22.1562 66.0625 22.0938 67.625C22.0938 69.125 22.1562 70.4688 22.2812 71.6562C22.4688 73.0312 22.7188 74.2812 23.0312 75.4062C23.4062 76.5312 23.875 77.8438 24.4375 79.3438C24.9375 80.5938 25.5 82.125 26.125 83.9375C26.8125 85.6875 27.625 87.6562 28.5625 89.8438C27.4375 89.8438 26.3438 89.875 25.2812 89.9375C24.2188 89.9375 23.25 89.9688 22.375 90.0312C21.375 90.0938 20.4375 90.1562 19.5625 90.2188C18.5625 90.2812 17.4375 90.4062 16.1875 90.5938C15.125 90.7188 13.7812 90.9062 12.1562 91.1562C10.5938 91.4062 8.8125 91.7188 6.8125 92.0938C8.125 90.2188 9.15625 88.5 9.90625 86.9375C10.7188 85.3125 11.3125 83.9062 11.6875 82.7188C12.125 81.3438 12.4062 80.0938 12.5312 78.9688C12.5938 78.0312 12.5938 76.375 12.5312 74C12.5312 71.625 12.5 68.875 12.4375 65.75C12.375 62.625 12.2812 59.3438 12.1562 55.9062C12.0312 52.4688 11.875 49.25 11.6875 46.25C11.5 43.1875 11.2812 40.5625 11.0312 38.375C10.8438 36.1875 10.6562 34.75 10.4688 34.0625C10.2188 33.25 9.78125 32.375 9.15625 31.4375C8.65625 30.625 7.9375 29.6875 7 28.625C6.125 27.5 5 26.25 3.625 24.875ZM23.0312 43.3438C22.9688 43.9688 22.9375 44.625 22.9375 45.3125C22.9375 46.625 23.0312 48.3125 23.2188 50.375C23.6562 51.4375 24.1875 52.3125 24.8125 53C25.5 53.6875 26.2188 54.2188 26.9688 54.5938C27.7812 54.9688 28.5938 55.2188 29.4062 55.3438C30.2188 55.4688 31.0312 55.5312 31.8438 55.5312C33.7188 55.4688 35.6875 55.0312 37.75 54.2188C40.5 53.0312 42.4375 51.3438 43.5625 49.1562C44.6875 46.9688 45.2812 44.7188 45.3438 42.4062C45.4062 40.0938 45 37.9688 44.125 36.0312C43.3125 34.0938 42.3125 32.7812 41.125 32.0938C40.125 31.6563 38.8438 31.4688 37.2812 31.5312C35.9062 31.5937 34.1875 31.9375 32.125 32.5625C30.0625 33.1875 27.5312 34.3125 24.5312 35.9375C24.2188 37.0625 23.9688 38.0625 23.7812 38.9375C23.5938 39.8125 23.4375 40.5938 23.3125 41.2812C23.1875 42.0312 23.0938 42.7188 23.0312 43.3438ZM59.5938 23.5625C61.5938 23.875 63.4062 24.1563 65.0312 24.4062C66.6562 24.5938 68.0625 24.75 69.25 24.875C70.625 25.0625 71.8438 25.2187 72.9062 25.3438C74.2188 25.5312 76.1875 25.3125 78.8125 24.6875C81.4375 24 84.3125 23.375 87.4375 22.8125C90.625 22.1875 93.875 21.8437 97.1875 21.7812C100.5 21.6562 103.531 22.25 106.281 23.5625C109.031 24.875 111.281 26.1875 113.031 27.5C114.781 28.8125 116.156 30.2188 117.156 31.7188C118.219 33.1562 118.969 34.6875 119.406 36.3125C119.844 37.9375 120.094 39.7188 120.156 41.6562C120.094 44.5312 119.406 47.3125 118.094 50C117.531 51.125 116.781 52.3125 115.844 53.5625C114.969 54.75 113.875 55.9062 112.562 57.0312C111.25 58.1562 109.688 59.2188 107.875 60.2188C106.125 61.2188 104.062 62.0938 101.688 62.8438C104 63.5312 105.906 64.3438 107.406 65.2812C108.969 66.2188 110.219 67.0938 111.156 67.9062C112.281 68.9062 113.125 69.875 113.688 70.8125C114.375 72.125 114.844 73.25 115.094 74.1875C115.344 75.125 115.5 76.0312 115.562 76.9062C115.688 77.7188 115.844 78.5625 116.031 79.4375C116.219 80.3125 116.625 81.3125 117.25 82.4375C117.75 83.3125 118.344 84.2188 119.031 85.1562C119.656 85.9688 120.375 86.8438 121.188 87.7812C122.062 88.7188 123.125 89.625 124.375 90.5C122.625 90.5625 121 90.5938 119.5 90.5938C118.062 90.5938 116.812 90.5938 115.75 90.5938C114.5 90.5938 113.312 90.5625 112.188 90.5C111.062 90.4375 109.656 90.4062 107.969 90.4062C106.531 90.4062 104.688 90.4062 102.438 90.4062C100.25 90.4062 97.5938 90.4375 94.4688 90.5C95.8438 89.4375 96.9688 88.375 97.8438 87.3125C98.7188 86.25 99.4062 85.2812 99.9062 84.4062C100.469 83.4062 100.875 82.4375 101.125 81.5C101.438 79.8125 101.469 78.0625 101.219 76.25C101.031 74.6875 100.531 72.9688 99.7188 71.0938C98.9062 69.1562 97.5938 67.2188 95.7812 65.2812C93.9688 65.5938 92.4375 65.8438 91.1875 66.0312C90 66.1562 88.9688 66.2812 88.0938 66.4062C87.0938 66.5312 86.2812 66.625 85.6562 66.6875C85.0938 66.75 84.4688 66.8125 83.7812 66.875C83.2188 66.9375 82.5938 67.0312 81.9062 67.1562C81.2812 67.2188 80.6875 67.3125 80.125 67.4375C80 70.125 80 72.4688 80.125 74.4688C80.25 76.4062 80.4062 78.0312 80.5938 79.3438C80.8438 80.9062 81.125 82.25 81.4375 83.375C81.75 84.5 82.1875 85.5938 82.75 86.6562C83.1875 87.5312 83.75 88.4688 84.4375 89.4688C85.125 90.4062 85.9062 91.1875 86.7812 91.8125C85.1562 91.8125 83.5938 91.8125 82.0938 91.8125C80.6562 91.8125 79.3438 91.7812 78.1562 91.7188C76.7812 91.7188 75.4688 91.6875 74.2188 91.625C72.9688 91.5625 71.5625 91.5312 70 91.5312C68.6875 91.5312 67.125 91.5312 65.3125 91.5312C63.5625 91.5312 61.6562 91.5625 59.5938 91.625C61.2188 89.9375 62.5 88.5 63.4375 87.3125C64.375 86.125 65.0938 85.125 65.5938 84.3125C66.1562 83.4375 66.5 82.6875 66.625 82.0625C66.75 81.0625 66.8438 79.2812 66.9062 76.7188C67.0312 74.0938 67.125 71.0938 67.1875 67.7188C67.25 64.3438 67.2812 60.8125 67.2812 57.125C67.2812 53.4375 67.25 50 67.1875 46.8125C67.125 43.5625 67.0625 40.7812 67 38.4688C66.9375 36.1562 66.875 34.6875 66.8125 34.0625C66.625 32.9375 66.2188 31.8125 65.5938 30.6875C65.0938 29.6875 64.375 28.5625 63.4375 27.3125C62.5 26.0625 61.2188 24.8125 59.5938 23.5625ZM95.0312 56.5625C95.6562 56.1875 96.1875 55.8125 96.625 55.4375C97.0625 55.0625 97.4375 54.4688 97.75 53.6562C98.0625 52.7812 98.3125 51.5625 98.5 50C98.75 48.4375 99.0312 46.3125 99.3438 43.625C99.5938 40.9375 99.4062 38.7188 98.7812 36.9688C98.2188 35.2188 97.4375 33.8438 96.4375 32.8438C95.5 31.7812 94.4375 31.0625 93.25 30.6875C92.125 30.25 91.125 30.0312 90.25 30.0312C88.5 30.0312 86.7812 30.5625 85.0938 31.625C83.4062 32.6875 82.125 34.125 81.25 35.9375C80.9375 36.75 80.6562 38.0938 80.4062 39.9688C80.2188 41.5938 80.0938 43.8438 80.0312 46.7188C79.9688 49.5938 80.0625 53.375 80.3125 58.0625C82.6875 58.4375 84.7812 58.5938 86.5938 58.5312C88.4062 58.4062 89.9375 58.1875 91.1875 57.875C92.6875 57.5625 93.9688 57.125 95.0312 56.5625Z" fill="#282137"/>
<rect y="40" width="131" height="40" fill="#E6FFE6"/>
<path d="M12.4727 54.6172C13.2227 54.5 13.832 54.4062 14.3008 54.3359C14.793 54.2422 15.1914 54.1719 15.4961 54.125C15.8477 54.0547 16.1172 53.9961 16.3047 53.9492C16.4922 53.9023 16.7617 53.832 17.1133 53.7383C17.418 53.6445 17.8164 53.5391 18.3086 53.4219C18.8008 53.2812 19.4219 53.0938 20.1719 52.8594C19.9844 53.0938 19.832 53.3047 19.7148 53.4922C19.6211 53.6562 19.5273 53.7969 19.4336 53.9141C19.3398 54.0547 19.2578 54.1836 19.1875 54.3008C19.1172 54.418 19.0469 54.5938 18.9766 54.8281C18.9297 55.0156 18.8711 55.2852 18.8008 55.6367C18.7305 55.9648 18.6719 56.3984 18.625 56.9375C19.8906 56.1406 21.0508 55.543 22.1055 55.1445C23.1836 54.7461 24.1211 54.4648 24.918 54.3008C25.8555 54.1133 26.6992 54.043 27.4492 54.0898C28.3867 54.1602 29.2539 54.3711 30.0508 54.7227C30.8711 55.0508 31.6094 55.4492 32.2656 55.918C32.9219 56.3867 33.4961 56.9023 33.9883 57.4648C34.4805 58.0273 34.8672 58.5898 35.1484 59.1523C35.3359 59.5273 35.4531 60.0664 35.5 60.7695C35.5703 61.4727 35.5 62.2227 35.2891 63.0195C35.0781 63.8164 34.7031 64.6016 34.1641 65.375C33.6484 66.125 32.9102 66.7227 31.9492 67.168C30.2852 67.918 28.6328 68.3398 26.9922 68.4336C26.2891 68.4805 25.5625 68.457 24.8125 68.3633C24.0859 68.2695 23.3477 68.0703 22.5977 67.7656C21.8711 67.4609 21.168 67.0273 20.4883 66.4648C19.8086 65.8789 19.1875 65.1289 18.625 64.2148C18.4375 65.4102 18.2969 66.4531 18.2031 67.3438C18.1328 68.2109 18.0859 68.9375 18.0625 69.5234C18.0391 70.2031 18.0391 70.7773 18.0625 71.2461C18.1094 71.7148 18.2031 72.2188 18.3438 72.7578C18.4609 73.2266 18.625 73.7656 18.8359 74.375C19.0703 75.0078 19.3633 75.6641 19.7148 76.3438C19.5742 76.2969 19.375 76.2617 19.1172 76.2383C18.8828 76.2383 18.6367 76.2617 18.3789 76.3086C18.0977 76.3555 17.7812 76.4023 17.4297 76.4492C17.1016 76.5195 16.7383 76.6016 16.3398 76.6953C16.0117 76.7656 15.625 76.8477 15.1797 76.9414C14.7578 77.0586 14.3242 77.1875 13.8789 77.3281C14.1367 77.0234 14.3359 76.6719 14.4766 76.2734C14.6406 75.8984 14.7695 75.5469 14.8633 75.2188C14.957 74.8203 15.0391 74.4219 15.1094 74.0234C15.1328 73.6719 15.168 73.0039 15.2148 72.0195C15.2852 71.0586 15.3438 69.9453 15.3906 68.6797C15.4375 67.3906 15.4727 66.043 15.4961 64.6367C15.543 63.2305 15.5664 61.9297 15.5664 60.7344C15.5898 59.5156 15.5898 58.4844 15.5664 57.6406C15.543 56.7969 15.4961 56.3047 15.4258 56.1641C15.332 56 15.1562 55.8242 14.8984 55.6367C14.6875 55.4727 14.3828 55.3086 13.9844 55.1445C13.6094 54.9805 13.1055 54.8047 12.4727 54.6172ZM20.8398 61.0156C20.6758 61.5547 20.6406 62.082 20.7344 62.5977C20.8281 63.1133 21.0625 63.5938 21.4375 64.0391C21.8359 64.4844 22.3867 64.8828 23.0898 65.2344C23.8164 65.5625 24.7188 65.8086 25.7969 65.9727C26.875 66.1367 27.6953 66.1133 28.2578 65.9023C28.8203 65.6914 29.2305 65.3633 29.4883 64.918C29.7695 64.4492 29.957 63.9102 30.0508 63.3008C30.1445 62.668 30.2617 62.0117 30.4023 61.332C30.543 60.6758 30.5195 60.0078 30.332 59.3281C30.1445 58.625 29.875 57.9922 29.5234 57.4297C29.1953 56.8672 28.8203 56.4102 28.3984 56.0586C28 55.6836 27.6484 55.4961 27.3438 55.4961C26.6172 55.4961 25.9023 55.6836 25.1992 56.0586C24.4961 56.4336 23.8516 56.9023 23.2656 57.4648C22.6797 58.0273 22.1641 58.6367 21.7188 59.293C21.2969 59.9258 21.0039 60.5 20.8398 61.0156ZM39.5781 56.7617C39.6953 56.6211 39.7656 56.3633 39.7891 55.9883C39.8359 55.5898 39.9297 55.1445 40.0703 54.6523C40.2344 54.1602 40.5039 53.6445 40.8789 53.1055C41.2539 52.5664 41.8633 52.0625 42.707 51.5938C43.5273 51.125 44.3242 50.8438 45.0977 50.75C45.8711 50.6562 46.6094 50.6914 47.3125 50.8555C48.0156 51.0195 48.6719 51.2773 49.2812 51.6289C49.9141 51.9805 50.4883 52.3672 51.0039 52.7891C51.3555 53.0703 51.6367 53.4805 51.8477 54.0195C52.0586 54.5352 52.2227 55.1211 52.3398 55.7773C52.457 56.4336 52.5391 57.125 52.5859 57.8516C52.6562 58.5547 52.7031 59.2461 52.7266 59.9258C52.75 60.582 52.7617 61.1914 52.7617 61.7539C52.7852 62.293 52.832 62.7383 52.9023 63.0898C52.9961 63.6055 53.1602 64.0508 53.3945 64.4258C53.6289 64.7773 53.8867 65.082 54.168 65.3398C54.4492 65.5742 54.7305 65.7617 55.0117 65.9023C55.293 66.043 55.5391 66.1484 55.75 66.2188C55.8906 66.2891 56.0195 66.3359 56.1367 66.3594C56.3711 66.4531 56.5352 66.4531 56.6289 66.3594C56.4883 66.6875 56.3594 66.9688 56.2422 67.2031C56.125 67.4375 56.0312 67.6367 55.9609 67.8008C55.8672 67.9883 55.7852 68.1406 55.7148 68.2578C55.6445 68.3984 55.5625 68.5273 55.4688 68.6445C55.3984 68.7617 55.3047 68.8906 55.1875 69.0312C55.0703 69.1719 54.9531 69.3242 54.8359 69.4883C54.5312 69.3711 54.2383 69.2305 53.957 69.0664C53.6992 68.9023 53.4648 68.75 53.2539 68.6094C52.9961 68.4453 52.7617 68.2812 52.5508 68.1172C52.3398 67.9531 52.1406 67.7656 51.9531 67.5547C51.7891 67.3672 51.6133 67.168 51.4258 66.957C51.2617 66.7461 51.1211 66.5117 51.0039 66.2539C50.8633 66.5586 50.5234 66.9922 49.9844 67.5547C49.4688 68.1172 48.7891 68.6328 47.9453 69.1016C47.1016 69.5469 46.1172 69.8633 44.9922 70.0508C43.8906 70.2383 42.6719 70.1094 41.3359 69.6641C40.75 69.4766 40.1992 69.207 39.6836 68.8555C39.168 68.4805 38.7227 68.0352 38.3477 67.5195C37.9961 67.0039 37.7383 66.418 37.5742 65.7617C37.4336 65.082 37.4453 64.332 37.6094 63.5117C37.7734 62.6914 38.0664 62 38.4883 61.4375C38.9102 60.875 39.4141 60.418 40 60.0664C40.5859 59.7148 41.2422 59.4453 41.9688 59.2578C42.6953 59.0703 43.4453 58.9414 44.2188 58.8711C44.8281 58.8477 45.4375 58.8828 46.0469 58.9766C46.5625 59.0703 47.1016 59.2461 47.6641 59.5039C48.2266 59.7383 48.707 60.1016 49.1055 60.5938C49.082 59.3516 49.0352 58.3672 48.9648 57.6406C48.918 56.8906 48.8711 56.3164 48.8242 55.918C48.7305 55.4492 48.6484 55.1211 48.5781 54.9336C48.4609 54.7695 48.332 54.582 48.1914 54.3711C48.0742 54.1602 47.9219 53.9727 47.7344 53.8086C47.5469 53.6211 47.3125 53.4688 47.0312 53.3516C46.75 53.2344 46.4219 53.1875 46.0469 53.2109C45.6484 53.2344 45.332 53.3398 45.0977 53.5273C44.8633 53.7148 44.6758 53.9375 44.5352 54.1953C44.418 54.4297 44.3477 54.6875 44.3242 54.9688C44.3008 55.25 44.3125 55.4961 44.3594 55.707C44.4062 55.8477 44.4766 56 44.5703 56.1641C44.6641 56.3047 44.793 56.457 44.957 56.6211C45.1211 56.7852 45.3438 56.9258 45.625 57.043C45.0859 57.1133 44.6055 57.1719 44.1836 57.2188C43.7617 57.2422 43.3984 57.2773 43.0938 57.3242C42.7422 57.3711 42.4375 57.4062 42.1797 57.4297C41.9219 57.4531 41.6172 57.5 41.2656 57.5703C40.9609 57.6172 40.5859 57.6758 40.1406 57.7461C39.6953 57.8164 39.1797 57.9102 38.5938 58.0273C38.7344 57.8633 38.8633 57.7109 38.9805 57.5703C39.0977 57.4062 39.2031 57.2656 39.2969 57.1484C39.3906 57.0078 39.4844 56.8789 39.5781 56.7617ZM44.8516 60.9453C44.4297 60.9688 44.0078 61.0742 43.5859 61.2617C43.1641 61.4258 42.7891 61.6719 42.4609 62C42.1328 62.3047 41.8516 62.668 41.6172 63.0898C41.4062 63.4883 41.3008 63.9336 41.3008 64.4258C41.3008 64.918 41.418 65.3516 41.6523 65.7266C41.9102 66.0781 42.2383 66.3711 42.6367 66.6055C43.0586 66.8398 43.5039 66.9805 43.9727 67.0273C44.4648 67.0742 44.9453 67.0273 45.4141 66.8867C45.8594 66.7227 46.2812 66.4648 46.6797 66.1133C47.0781 65.7383 47.418 65.3398 47.6992 64.918C47.9805 64.4727 48.1797 64.0391 48.2969 63.6172C48.4141 63.1719 48.4258 62.8086 48.332 62.5273C48.1445 61.918 47.7227 61.4961 47.0664 61.2617C46.4102 61.0039 45.6719 60.8984 44.8516 60.9453ZM55.2227 54.6172C55.9727 54.5 56.582 54.4062 57.0508 54.3359C57.543 54.2422 57.9414 54.1719 58.2461 54.125C58.5977 54.0547 58.8672 53.9961 59.0547 53.9492C59.2422 53.9023 59.5117 53.832 59.8633 53.7383C60.168 53.6445 60.5664 53.5391 61.0586 53.4219C61.5508 53.2812 62.1719 53.0938 62.9219 52.8594C62.7344 53.0938 62.582 53.3047 62.4648 53.4922C62.3711 53.6562 62.2773 53.7969 62.1836 53.9141C62.0898 54.0547 62.0078 54.1836 61.9375 54.3008C61.8672 54.418 61.7969 54.5938 61.7266 54.8281C61.6797 55.0156 61.6211 55.2852 61.5508 55.6367C61.4805 55.9648 61.4219 56.3984 61.375 56.9375C62.6406 56.1406 63.8008 55.543 64.8555 55.1445C65.9336 54.7461 66.8711 54.4648 67.668 54.3008C68.6055 54.1133 69.4492 54.043 70.1992 54.0898C71.1367 54.1602 72.0039 54.3711 72.8008 54.7227C73.6211 55.0508 74.3594 55.4492 75.0156 55.918C75.6719 56.3867 76.2461 56.9023 76.7383 57.4648C77.2305 58.0273 77.6172 58.5898 77.8984 59.1523C78.0859 59.5273 78.2031 60.0664 78.25 60.7695C78.3203 61.4727 78.25 62.2227 78.0391 63.0195C77.8281 63.8164 77.4531 64.6016 76.9141 65.375C76.3984 66.125 75.6602 66.7227 74.6992 67.168C73.0352 67.918 71.3828 68.3398 69.7422 68.4336C69.0391 68.4805 68.3125 68.457 67.5625 68.3633C66.8359 68.2695 66.0977 68.0703 65.3477 67.7656C64.6211 67.4609 63.918 67.0273 63.2383 66.4648C62.5586 65.8789 61.9375 65.1289 61.375 64.2148C61.1875 65.4102 61.0469 66.4531 60.9531 67.3438C60.8828 68.2109 60.8359 68.9375 60.8125 69.5234C60.7891 70.2031 60.7891 70.7773 60.8125 71.2461C60.8594 71.7148 60.9531 72.2188 61.0938 72.7578C61.2109 73.2266 61.375 73.7656 61.5859 74.375C61.8203 75.0078 62.1133 75.6641 62.4648 76.3438C62.3242 76.2969 62.125 76.2617 61.8672 76.2383C61.6328 76.2383 61.3867 76.2617 61.1289 76.3086C60.8477 76.3555 60.5312 76.4023 60.1797 76.4492C59.8516 76.5195 59.4883 76.6016 59.0898 76.6953C58.7617 76.7656 58.375 76.8477 57.9297 76.9414C57.5078 77.0586 57.0742 77.1875 56.6289 77.3281C56.8867 77.0234 57.0859 76.6719 57.2266 76.2734C57.3906 75.8984 57.5195 75.5469 57.6133 75.2188C57.707 74.8203 57.7891 74.4219 57.8594 74.0234C57.8828 73.6719 57.918 73.0039 57.9648 72.0195C58.0352 71.0586 58.0938 69.9453 58.1406 68.6797C58.1875 67.3906 58.2227 66.043 58.2461 64.6367C58.293 63.2305 58.3164 61.9297 58.3164 60.7344C58.3398 59.5156 58.3398 58.4844 58.3164 57.6406C58.293 56.7969 58.2461 56.3047 58.1758 56.1641C58.082 56 57.9062 55.8242 57.6484 55.6367C57.4375 55.4727 57.1328 55.3086 56.7344 55.1445C56.3594 54.9805 55.8555 54.8047 55.2227 54.6172ZM63.5898 61.0156C63.4258 61.5547 63.3906 62.082 63.4844 62.5977C63.5781 63.1133 63.8125 63.5938 64.1875 64.0391C64.5859 64.4844 65.1367 64.8828 65.8398 65.2344C66.5664 65.5625 67.4688 65.8086 68.5469 65.9727C69.625 66.1367 70.4453 66.1133 71.0078 65.9023C71.5703 65.6914 71.9805 65.3633 72.2383 64.918C72.5195 64.4492 72.707 63.9102 72.8008 63.3008C72.8945 62.668 73.0117 62.0117 73.1523 61.332C73.293 60.6758 73.2695 60.0078 73.082 59.3281C72.8945 58.625 72.625 57.9922 72.2734 57.4297C71.9453 56.8672 71.5703 56.4102 71.1484 56.0586C70.75 55.6836 70.3984 55.4961 70.0938 55.4961C69.3672 55.4961 68.6523 55.6836 67.9492 56.0586C67.2461 56.4336 66.6016 56.9023 66.0156 57.4648C65.4297 58.0273 64.9141 58.6367 64.4688 59.293C64.0469 59.9258 63.7539 60.5 63.5898 61.0156ZM88.832 65.3398C89.4883 65.3398 90.0977 65.2695 90.6602 65.1289C91.1289 65.0117 91.5742 64.8242 91.9961 64.5664C92.4414 64.2852 92.7344 63.875 92.875 63.3359C93.3438 63.4297 93.7422 63.5117 94.0703 63.582C94.3984 63.6289 94.6797 63.6758 94.9141 63.7227C95.1719 63.793 95.3945 63.8398 95.582 63.8633C95.7695 63.9102 95.9922 63.957 96.25 64.0039C96.4844 64.0508 96.7656 64.1094 97.0938 64.1797C97.4453 64.2266 97.8555 64.2969 98.3242 64.3906C97.9727 64.3438 97.6094 64.3789 97.2344 64.4961C96.8828 64.6133 96.543 64.7422 96.2148 64.8828C95.8398 65.0469 95.4883 65.2461 95.1602 65.4805C94.9492 65.6211 94.7031 65.832 94.4219 66.1133C94.1641 66.3945 93.7891 66.6641 93.2969 66.9219C92.8047 67.1797 92.1484 67.4023 91.3281 67.5898C90.5312 67.7539 89.5 67.8125 88.2344 67.7656C86.7109 67.7188 85.4336 67.4492 84.4023 66.957C83.3711 66.4414 82.5391 65.8203 81.9062 65.0938C81.2734 64.3438 80.8164 63.5352 80.5352 62.668C80.2539 61.8008 80.1016 60.9922 80.0781 60.2422C80.0547 59.4922 80.2773 58.707 80.7461 57.8867C81.2148 57.0664 81.8711 56.3164 82.7148 55.6367C83.582 54.957 84.625 54.4062 85.8438 53.9844C87.0625 53.5391 88.3984 53.3164 89.8516 53.3164C90.6953 53.3164 91.4688 53.4219 92.1719 53.6328C92.8984 53.8203 93.5547 54.0781 94.1406 54.4062C94.75 54.7344 95.2773 55.1094 95.7227 55.5312C96.168 55.9297 96.543 56.3398 96.8477 56.7617C97.1523 57.207 97.4102 57.6758 97.6211 58.168C97.8086 58.5898 97.9609 59.0703 98.0781 59.6094C98.1953 60.1484 98.2305 60.6992 98.1836 61.2617C96.4023 61.3086 94.9609 61.3438 93.8594 61.3672C92.7812 61.3906 91.9375 61.4023 91.3281 61.4023H89.7461H88.5508C88.1289 61.4023 87.5781 61.4141 86.8984 61.4375C86.2188 61.4609 85.3867 61.4961 84.4023 61.543C84.5195 62.4805 84.8125 63.207 85.2812 63.7227C85.7734 64.2148 86.2891 64.5898 86.8281 64.8477C87.4375 65.1289 88.1055 65.293 88.832 65.3398ZM85.668 59.0117C86.418 59.0586 87.0391 59.0938 87.5312 59.1172C88.0469 59.1406 88.4688 59.1641 88.7969 59.1875C89.1484 59.2109 89.4297 59.2227 89.6406 59.2227H90.5195C91.1055 59.2227 92.1953 59.1875 93.7891 59.1172C93.7188 58.0859 93.4961 57.3008 93.1211 56.7617C92.7695 56.2227 92.3945 55.8242 91.9961 55.5664C91.5273 55.2852 91.0117 55.1211 90.4492 55.0742C88.9258 55.0977 87.7891 55.4141 87.0391 56.0234C86.3125 56.6328 85.8555 57.6289 85.668 59.0117ZM99.2383 54.1602C99.6836 54.1836 100.082 54.1953 100.434 54.1953C100.809 54.1719 101.125 54.1484 101.383 54.125C101.688 54.1016 101.957 54.0781 102.191 54.0547C102.543 54.0078 102.906 53.9492 103.281 53.8789C103.609 53.832 103.949 53.7734 104.301 53.7031C104.676 53.6094 105.039 53.5039 105.391 53.3867C105.25 53.7383 105.133 54.043 105.039 54.3008C104.945 54.5586 104.875 54.7812 104.828 54.9688C104.758 55.1797 104.723 55.3555 104.723 55.4961C104.699 55.6602 104.688 55.8594 104.688 56.0938C104.664 56.4922 104.664 57.1367 104.688 58.0273C105.906 56.9727 106.926 56.1523 107.746 55.5664C108.59 54.9805 109.258 54.5234 109.75 54.1953C110.336 53.8203 110.793 53.5742 111.121 53.457C111.988 53.3164 112.75 53.5156 113.406 54.0547C113.688 54.2891 113.957 54.6055 114.215 55.0039C114.473 55.3789 114.695 55.8828 114.883 56.5156C115.07 57.1484 115.211 57.9102 115.305 58.8008C115.398 59.668 115.41 60.7109 115.34 61.9297C114.848 61.9766 114.402 62.0234 114.004 62.0703C113.629 62.1172 113.312 62.1523 113.055 62.1758C112.75 62.2227 112.469 62.2461 112.211 62.2461L111.262 62.3516C110.934 62.3984 110.523 62.4453 110.031 62.4922C109.562 62.5156 108.988 62.5625 108.309 62.6328C109.293 61.8359 109.926 61.1445 110.207 60.5586C110.512 59.9492 110.641 59.4453 110.594 59.0469C110.547 58.6016 110.336 58.2148 109.961 57.8867C109.516 57.6289 109.035 57.5352 108.52 57.6055C108.074 57.6523 107.559 57.8516 106.973 58.2031C106.387 58.5547 105.766 59.2109 105.109 60.1719C105.156 61.6719 105.203 62.9141 105.25 63.8984C105.32 64.8828 105.379 65.6797 105.426 66.2891C105.496 66.9922 105.555 67.543 105.602 67.9414C105.672 68.293 105.812 68.668 106.023 69.0664C106.188 69.3945 106.422 69.7578 106.727 70.1562C107.031 70.5547 107.43 70.9531 107.922 71.3516C106.891 71.3047 106.047 71.3047 105.391 71.3516C104.992 71.375 104.641 71.3984 104.336 71.4219C104.008 71.4688 103.656 71.5156 103.281 71.5625C102.953 71.6094 102.566 71.6562 102.121 71.7031C101.699 71.7734 101.23 71.8438 100.715 71.9141C100.902 71.6562 101.055 71.3516 101.172 71C101.289 70.6719 101.383 70.3555 101.453 70.0508C101.547 69.6992 101.617 69.3359 101.664 68.9609C101.688 68.6328 101.699 68.1406 101.699 67.4844C101.723 66.8281 101.711 66.0898 101.664 65.2695C101.641 64.4258 101.605 63.5586 101.559 62.668C101.512 61.7539 101.453 60.8984 101.383 60.1016C101.312 59.3047 101.23 58.6133 101.137 58.0273C101.066 57.418 100.984 56.9961 100.891 56.7617C100.773 56.4805 100.633 56.1992 100.469 55.918C100.328 55.6602 100.152 55.3906 99.9414 55.1094C99.7305 54.8047 99.4961 54.4883 99.2383 54.1602Z" fill="#282137"/>
</svg>
